<svg xmlns="http://www.w3.org/2000/svg" viewBox="0 0 2168 1952">
  <style>
    .logo {
      fill: #000;
    }
    @media (prefers-color-scheme: dark) {
      .logo {
        fill: #fff;
      }
    }
  </style>
  <g
    class="logo"
    transform="translate(0,1952) scale(0.1,-0.1)"
    stroke="none"
  >
    <path
      d="M10952 17950 c-9 -25 -121 -353 -707 -2075 -618 -1815 -833 -2443
-1161 -3392 l-105 -302 122 -288 c67 -158 335 -801 596 -1428 261 -627 499
-1196 528 -1265 29 -69 105 -251 170 -405 64 -154 120 -284 125 -288 4 -5 17
18 28 50 11 32 72 209 137 393 207 593 787 2272 995 2880 206 602 546 1586
636 1840 l44 125 -261 775 c-144 426 -454 1358 -691 2070 -236 712 -433 1304
-437 1315 -8 19 -9 19 -19 -5z"
    />
    <path
      d="M12865 13258 c-3 -7 -333 -994 -734 -2193 -401 -1199 -904 -2702
-1119 -3340 l-390 -1160 -30 -3 c-25 -3 -33 2 -45 25 -8 15 -111 253 -230 528
-119 275 -345 799 -502 1165 -392 909 -1009 2343 -1110 2580 -45 107 -130 305
-188 440 -97 226 -390 914 -687 1613 l-123 287 -725 -2 -725 -3 -29 -100 c-25
-86 -358 -1311 -423 -1555 -34 -127 -241 -890 -294 -1085 l-47 -170 -2244 -5
c-1235 -3 -2240 -8 -2235 -11 19 -12 1448 -777 1815 -971 1824 -968 2113
-1123 2118 -1136 1 -5 -168 -599 -377 -1318 -209 -720 -425 -1464 -479 -1654
-285 -983 -585 -2016 -610 -2102 -16 -54 -26 -98 -22 -98 8 0 698 376 1980
1078 377 206 969 530 1315 720 686 375 1628 893 1633 897 2 1 -37 58 -86 126
-49 68 -188 264 -310 436 l-221 311 -93 -50 c-357 -192 -1720 -889 -1726 -883
-3 3 11 69 32 147 40 156 163 638 516 2018 277 1085 429 1675 636 2470 34 132
34 131 51 90 8 -19 91 -222 185 -450 266 -648 555 -1345 858 -2065 387 -920
563 -1340 703 -1670 90 -214 244 -579 341 -810 238 -563 1024 -2395 1491
-3473 98 -227 182 -409 186 -405 8 10 261 740 1023 2958 625 1822 588 1718
627 1738 19 10 333 162 699 338 850 410 1438 694 1762 852 l257 125 19 -56
c11 -32 99 -286 197 -567 278 -801 426 -1237 423 -1246 -2 -5 -127 58 -278
140 -742 398 -1206 644 -1215 644 -5 0 -192 -115 -415 -255 -223 -139 -456
-285 -517 -323 -62 -37 -113 -71 -113 -74 0 -3 46 -30 103 -60 56 -30 253
-135 437 -234 184 -99 868 -465 1520 -814 2135 -1145 2584 -1386 3058 -1646
28 -16 52 -27 52 -24 0 7 -557 1669 -780 2327 -117 344 -305 904 -420 1245
-114 341 -283 842 -375 1113 -91 272 -165 495 -163 496 17 13 491 264 1188
628 173 91 693 363 1155 605 462 242 1034 541 1270 664 l430 224 -2425 3
-2426 2 -36 98 c-143 382 -354 947 -432 1157 -271 729 -613 1646 -641 1718 -7
16 -65 17 -1021 17 -803 0 -1016 -3 -1019 -12z m1209 -2214 c90 -241 205 -549
255 -684 50 -135 178 -477 284 -762 l193 -516 -46 -22 c-53 -26 -1557 -726
-1744 -812 -71 -32 -131 -57 -133 -54 -5 4 33 128 302 991 79 253 191 615 250
805 59 190 137 444 175 565 37 121 116 378 175 570 108 351 114 370 121 363 2
-3 77 -202 168 -444z"
    />
  </g>
</svg>
